<mxfile host="app.diagrams.net" modified="2022-05-08T05:19:46.380Z" agent="5.0 (Macintosh; Intel Mac OS X 10_15_7) AppleWebKit/537.36 (KHTML, like Gecko) Chrome/100.0.4896.127 Safari/537.36" etag="bf0ZaZiSDkLt6wtTjLsp" version="18.0.2" type="github">
  <diagram id="Oz5nnxfvOsz6-HqpeVd3" name="第 1 页">
    <mxGraphModel dx="946" dy="614" grid="1" gridSize="10" guides="1" tooltips="1" connect="1" arrows="1" fold="1" page="1" pageScale="1" pageWidth="827" pageHeight="1169" math="0" shadow="0">
      <root>
        <mxCell id="0" />
        <mxCell id="1" parent="0" />
        <mxCell id="stOANyW882-tro0wbt8S-4" style="edgeStyle=orthogonalEdgeStyle;rounded=0;orthogonalLoop=1;jettySize=auto;html=1;" edge="1" parent="1" source="stOANyW882-tro0wbt8S-1" target="stOANyW882-tro0wbt8S-3">
          <mxGeometry relative="1" as="geometry" />
        </mxCell>
        <mxCell id="stOANyW882-tro0wbt8S-22" style="edgeStyle=orthogonalEdgeStyle;rounded=0;orthogonalLoop=1;jettySize=auto;html=1;" edge="1" parent="1" source="stOANyW882-tro0wbt8S-1" target="stOANyW882-tro0wbt8S-21">
          <mxGeometry relative="1" as="geometry" />
        </mxCell>
        <mxCell id="stOANyW882-tro0wbt8S-23" style="edgeStyle=orthogonalEdgeStyle;rounded=0;orthogonalLoop=1;jettySize=auto;html=1;" edge="1" parent="1" source="stOANyW882-tro0wbt8S-1" target="stOANyW882-tro0wbt8S-20">
          <mxGeometry relative="1" as="geometry" />
        </mxCell>
        <mxCell id="stOANyW882-tro0wbt8S-24" value="称号" style="edgeLabel;html=1;align=center;verticalAlign=middle;resizable=0;points=[];" vertex="1" connectable="0" parent="stOANyW882-tro0wbt8S-23">
          <mxGeometry x="-0.5882" y="2" relative="1" as="geometry">
            <mxPoint as="offset" />
          </mxGeometry>
        </mxCell>
        <mxCell id="stOANyW882-tro0wbt8S-1" value="&lt;font style=&quot;font-size: 22px&quot;&gt;炎帝&lt;/font&gt;&lt;br&gt;姓姜/神农氏/&lt;span style=&quot;color: rgb(32, 33, 36); font-family: menlo, monospace; font-size: 11px; text-align: left;&quot;&gt;魁隗氏、连山氏/烈山氏/赤帝&lt;/span&gt;" style="ellipse;whiteSpace=wrap;html=1;fillColor=#f8cecc;strokeColor=#b85450;" vertex="1" parent="1">
          <mxGeometry x="354" y="150" width="120" height="80" as="geometry" />
        </mxCell>
        <mxCell id="stOANyW882-tro0wbt8S-6" style="edgeStyle=orthogonalEdgeStyle;rounded=0;orthogonalLoop=1;jettySize=auto;html=1;" edge="1" parent="1" source="stOANyW882-tro0wbt8S-3" target="stOANyW882-tro0wbt8S-5">
          <mxGeometry relative="1" as="geometry" />
        </mxCell>
        <mxCell id="stOANyW882-tro0wbt8S-3" value="&lt;font color=&quot;#333333&quot;&gt;&lt;span style=&quot;background-color: rgb(255, 255, 255);&quot;&gt;帝魁&lt;/span&gt;&lt;/font&gt;" style="rounded=1;whiteSpace=wrap;html=1;fontSize=12;" vertex="1" parent="1">
          <mxGeometry x="384" y="270" width="60" height="30" as="geometry" />
        </mxCell>
        <mxCell id="stOANyW882-tro0wbt8S-8" style="edgeStyle=orthogonalEdgeStyle;rounded=0;orthogonalLoop=1;jettySize=auto;html=1;" edge="1" parent="1" source="stOANyW882-tro0wbt8S-5" target="stOANyW882-tro0wbt8S-7">
          <mxGeometry relative="1" as="geometry" />
        </mxCell>
        <mxCell id="stOANyW882-tro0wbt8S-5" value="&lt;font color=&quot;#333333&quot;&gt;&lt;span style=&quot;background-color: rgb(255, 255, 255);&quot;&gt;帝承&lt;/span&gt;&lt;/font&gt;" style="rounded=1;whiteSpace=wrap;html=1;fontSize=12;" vertex="1" parent="1">
          <mxGeometry x="384" y="340" width="60" height="30" as="geometry" />
        </mxCell>
        <mxCell id="stOANyW882-tro0wbt8S-14" style="edgeStyle=orthogonalEdgeStyle;rounded=0;orthogonalLoop=1;jettySize=auto;html=1;" edge="1" parent="1" source="stOANyW882-tro0wbt8S-7" target="stOANyW882-tro0wbt8S-9">
          <mxGeometry relative="1" as="geometry" />
        </mxCell>
        <mxCell id="stOANyW882-tro0wbt8S-7" value="&lt;font color=&quot;#333333&quot;&gt;&lt;span style=&quot;background-color: rgb(255, 255, 255);&quot;&gt;帝明&lt;/span&gt;&lt;/font&gt;" style="rounded=1;whiteSpace=wrap;html=1;fontSize=12;" vertex="1" parent="1">
          <mxGeometry x="384" y="400" width="60" height="30" as="geometry" />
        </mxCell>
        <mxCell id="stOANyW882-tro0wbt8S-15" style="edgeStyle=orthogonalEdgeStyle;rounded=0;orthogonalLoop=1;jettySize=auto;html=1;" edge="1" parent="1" source="stOANyW882-tro0wbt8S-9" target="stOANyW882-tro0wbt8S-10">
          <mxGeometry relative="1" as="geometry" />
        </mxCell>
        <mxCell id="stOANyW882-tro0wbt8S-9" value="&lt;font color=&quot;#333333&quot;&gt;&lt;span style=&quot;background-color: rgb(255, 255, 255);&quot;&gt;帝直&lt;/span&gt;&lt;/font&gt;" style="rounded=1;whiteSpace=wrap;html=1;fontSize=12;" vertex="1" parent="1">
          <mxGeometry x="384" y="460" width="60" height="30" as="geometry" />
        </mxCell>
        <mxCell id="stOANyW882-tro0wbt8S-16" style="edgeStyle=orthogonalEdgeStyle;rounded=0;orthogonalLoop=1;jettySize=auto;html=1;" edge="1" parent="1" source="stOANyW882-tro0wbt8S-10" target="stOANyW882-tro0wbt8S-11">
          <mxGeometry relative="1" as="geometry" />
        </mxCell>
        <mxCell id="stOANyW882-tro0wbt8S-10" value="&lt;span style=&quot;color: rgb(32, 33, 36); font-family: menlo, monospace; font-size: 11px; text-align: left; background-color: rgb(255, 255, 255);&quot;&gt;帝氂&lt;/span&gt;" style="rounded=1;whiteSpace=wrap;html=1;fontSize=12;" vertex="1" parent="1">
          <mxGeometry x="384" y="520" width="60" height="30" as="geometry" />
        </mxCell>
        <mxCell id="stOANyW882-tro0wbt8S-17" style="edgeStyle=orthogonalEdgeStyle;rounded=0;orthogonalLoop=1;jettySize=auto;html=1;" edge="1" parent="1" source="stOANyW882-tro0wbt8S-11" target="stOANyW882-tro0wbt8S-12">
          <mxGeometry relative="1" as="geometry" />
        </mxCell>
        <mxCell id="stOANyW882-tro0wbt8S-11" value="&lt;span style=&quot;color: rgb(32, 33, 36); font-family: menlo, monospace; font-size: 11px; text-align: left; background-color: rgb(255, 255, 255);&quot;&gt;帝哀&lt;/span&gt;" style="rounded=1;whiteSpace=wrap;html=1;fontSize=12;" vertex="1" parent="1">
          <mxGeometry x="384" y="580" width="60" height="30" as="geometry" />
        </mxCell>
        <mxCell id="stOANyW882-tro0wbt8S-18" style="edgeStyle=orthogonalEdgeStyle;rounded=0;orthogonalLoop=1;jettySize=auto;html=1;" edge="1" parent="1" source="stOANyW882-tro0wbt8S-12" target="stOANyW882-tro0wbt8S-13">
          <mxGeometry relative="1" as="geometry" />
        </mxCell>
        <mxCell id="stOANyW882-tro0wbt8S-12" value="&lt;span style=&quot;color: rgb(32, 33, 36); font-family: menlo, monospace; font-size: 11px; text-align: left; background-color: rgb(255, 255, 255);&quot;&gt;帝克&lt;/span&gt;" style="rounded=1;whiteSpace=wrap;html=1;fontSize=12;" vertex="1" parent="1">
          <mxGeometry x="384" y="640" width="60" height="30" as="geometry" />
        </mxCell>
        <mxCell id="stOANyW882-tro0wbt8S-13" value="&lt;span style=&quot;color: rgb(32, 33, 36); font-family: menlo, monospace; font-size: 11px; text-align: left; background-color: rgb(255, 255, 255);&quot;&gt;帝榆罔&lt;/span&gt;" style="rounded=1;whiteSpace=wrap;html=1;fontSize=12;" vertex="1" parent="1">
          <mxGeometry x="384" y="700" width="60" height="30" as="geometry" />
        </mxCell>
        <mxCell id="stOANyW882-tro0wbt8S-20" value="&lt;span style=&quot;color: rgb(51, 51, 51); font-family: &amp;quot;PingFang SC&amp;quot;, &amp;quot;Lantinghei SC&amp;quot;, &amp;quot;Microsoft YaHei&amp;quot;, arial, 宋体, sans-serif, tahoma; font-size: 12px; text-align: start; background-color: rgb(255, 255, 255);&quot;&gt;医药之神&lt;/span&gt;" style="rounded=0;whiteSpace=wrap;html=1;fontSize=11;" vertex="1" parent="1">
          <mxGeometry x="590" y="200" width="80" height="20" as="geometry" />
        </mxCell>
        <mxCell id="stOANyW882-tro0wbt8S-21" value="&lt;span style=&quot;color: rgb(51, 51, 51); font-family: &amp;quot;PingFang SC&amp;quot;, &amp;quot;Lantinghei SC&amp;quot;, &amp;quot;Microsoft YaHei&amp;quot;, arial, 宋体, sans-serif, tahoma; font-size: 12px; text-align: start; background-color: rgb(255, 255, 255);&quot;&gt;农业之神&lt;/span&gt;" style="rounded=0;whiteSpace=wrap;html=1;fontSize=11;" vertex="1" parent="1">
          <mxGeometry x="590" y="170" width="80" height="20" as="geometry" />
        </mxCell>
      </root>
    </mxGraphModel>
  </diagram>
</mxfile>
